<svg xmlns="http://www.w3.org/2000/svg" xml:space="preserve" style="enable-background:new 0 0 512.001 512.001" viewBox="0 0 512.001 512.001" fill="#fff">
  <path d="m300.702-6.013a20.528 20.528 0 0 0-14.516-6.013h-87.743c-5.446 0-10.667 2.162-14.516 6.013a20.527 20.527 0 0 0-6.012 14.516l.001 118.043v37.615l.001 211.043c0 5.444 2.162 10.665 6.014 14.514l43.87 43.87c4.009 4.01 9.263 6.015 14.515 6.015 5.253 0 10.508-2.005 14.515-6.015l43.87-43.87c3.85-3.85 6.013-9.071 6.013-14.514l.003-366.702c-.003-5.444-2.165-10.665-6.015-14.515z"/>
</svg>
